# xmcd CD database file
#
# Track frame offsets:
#	150
#	37713
#	62902
#	91100
#	111930
#	146940
#	163467
#	181961
#	188095
#	213775
#
# Disc length: 3374 seconds
#
# Revision: 0
# Processed by: cddbd v1.5.1PL0 Copyright (c) Steve Scherf et al.
# Submitted via: CDex 1.51
#
DISCID=8a0d2c0a
DTITLE=Welcome to the Maze - Puzzle
DYEAR=1995
DGENRE=Jazz
TTITLE0=Two Magpies
TTITLE1=I didn´t know what time it was
TTITLE2=Garedn if Devation
TTITLE3=She expected a caress
TTITLE4=Waves
TTITLE5=Breath
TTITLE6=Say Yes
TTITLE7=What are days for
TTITLE8=My favourite things
TTITLE9=Walkin in a maze
EXTD=YEAR: 1995
EXTT0=
EXTT1=
EXTT2=
EXTT3=
EXTT4=
EXTT5=
EXTT6=
EXTT7=
EXTT8=
EXTT9=
PLAYORDER=
